<?xml version="1.0" encoding="utf-8"?>
<!-- Generator: Adobe Illustrator 24.0.3, SVG Export Plug-In . SVG Version: 6.00 Build 0)  -->
<svg version="1.1" id="Layer_1" xmlns="http://www.w3.org/2000/svg" xmlns:xlink="http://www.w3.org/1999/xlink" x="0px" y="0px"
	 viewBox="0 0 67 92" style="enable-background:new 0 0 67 92;" xml:space="preserve">
<style type="text/css">
	.st0{fill:#D6D1CA;}
</style>
<g>
	<path class="st0" d="M33.5,20.66c1.88,0,6.21,0.79,16.19,4.57c4.61,1.75,8.78,3.51,10.52,4.26c-0.39,3.39-1.34,10.28-3.2,17.39
		c-2.77,10.61-9.1,25.69-23.51,37.75l0,0C19.09,72.57,12.76,57.49,9.99,46.88c-1.85-7.1-2.81-14-3.2-17.39
		c1.74-0.75,5.91-2.52,10.52-4.26C27.29,21.45,31.62,20.66,33.5,20.66 M33.5,19.4c-2.88,0-8.48,1.57-16.64,4.65
		c-4.69,1.78-8.96,3.59-10.57,4.28l-0.86,0.37l0.11,0.93C5.94,33.13,6.9,40.05,8.77,47.2c2.8,10.73,9.23,26.1,23.92,38.4l0.81,0.67
		l0.81-0.67C49,73.3,55.43,57.93,58.23,47.2c1.87-7.15,2.83-14.07,3.23-17.56l0.11-0.93l-0.86-0.37c-1.62-0.7-5.88-2.51-10.57-4.28
		C41.98,20.97,36.38,19.4,33.5,19.4L33.5,19.4z"/>
	<g>
		<path class="st0" d="M33.5,28.55l11.18-3.45c-4.75-1.65-9-2.85-11.18-2.85c-2.19,0-6.44,1.2-11.18,2.85L33.5,28.55z"/>
		<path class="st0" d="M33.5,37.52l15.85-4.47l8.42,2.37c0.31-1.91,0.55-3.6,0.71-4.94c-0.02-0.01-0.04-0.02-0.05-0.02l-9.08,2.56
			L33.5,28.55l-15.9,4.48L33.5,37.52z"/>
		<path class="st0" d="M8.53,30.51c0.17,1.33,0.4,2.99,0.7,4.87l8.28-2.34L8.53,30.51z"/>
		<path class="st0" d="M9.91,39.21c0.32,1.68,0.7,3.44,1.13,5.24l7.93-2.45l14.53,4.48l14.53-4.48l7.93,2.45
			c0.43-1.8,0.8-3.57,1.13-5.24l-9.06,2.79L33.5,37.52l-14.53,4.48L9.91,39.21z"/>
		<path class="st0" d="M11.99,48.12c0.47,1.63,1.02,3.36,1.67,5.15l6.7-2.28l13.15,4.47l13.17-4.48l6.68,2.27
			c0.65-1.78,1.19-3.5,1.66-5.12l-8.34,2.84L33.5,46.49l-13.15,4.47L11.99,48.12z"/>
		<polygon class="st0" points="33.5,64.43 44.41,59.95 33.5,55.46 22.59,59.95 		"/>
		<path class="st0" d="M17.49,62.05l5.1-2.1l-7.54-3.1C15.77,58.55,16.58,60.29,17.49,62.05z"/>
		<path class="st0" d="M51.94,56.85l-7.54,3.1l5.1,2.1C50.42,60.29,51.23,58.55,51.94,56.85z"/>
		<polygon class="st0" points="33.5,73.4 41.65,68.92 33.5,64.43 25.35,68.92 		"/>
		<path class="st0" d="M46.79,66.84l-5.14,2.07l2.87,1.37C45.24,69.25,46.15,67.89,46.79,66.84z"/>
		<path class="st0" d="M20.21,66.84l5.14,2.07l-2.87,1.37C21.76,69.25,20.86,67.89,20.21,66.84z"/>
		<path class="st0" d="M33.06,82.13l0.44,0.24l0.44-0.24c2-1.77,3.83-3.6,5.51-5.47L33.5,73.4l-5.95,3.26
			C29.23,78.53,31.06,80.36,33.06,82.13z"/>
		<path class="st0" d="M28.05,13.75l-0.91,0.91c0.8,0.8,1.85,1.2,2.9,1.2c1.01,0,2.03-0.38,2.82-1.12v2.37h1.28v-2.37
			c0.79,0.75,1.8,1.12,2.82,1.12c1.05,0,2.1-0.4,2.9-1.2l-0.91-0.91c-1.1,1.1-2.88,1.1-3.98,0c-1.1-1.1-1.1-2.88,0-3.98
			c1.1-1.1,2.88-1.1,3.98,0l0.91-0.91c-1.57-1.57-4.11-1.59-5.71-0.07V6.42h-1.28v2.37c-1.6-1.52-4.14-1.5-5.71,0.07l0.91,0.91
			c1.1-1.1,2.88-1.1,3.98,0c1.1,1.1,1.1,2.88,0,3.98C30.94,14.85,29.15,14.85,28.05,13.75z"/>
	</g>
	<g>
		<g>
			<path class="st0" d="M33.64,91h-0.29l-0.12-0.08c-0.62-0.42-1.22-0.89-1.25-0.91C15.31,76.89,8.13,60.02,5.03,48.19
				C1.15,33.32,1.11,22.12,1.11,22.01c0-0.7,0.03-1.03,0.03-1.04l0.02-0.19l0.14-0.12c0.03-0.02,2.88-2.52,3.95-3.41
				C18.11,6.63,32.6,1.33,32.74,1.29L33.5,1l0.78,0.29c0.12,0.04,14.61,5.34,27.47,15.96c1.08,0.89,3.92,3.38,3.95,3.41l0.14,0.12
				l0.02,0.19c0,0.01,0.03,0.34,0.03,1.04c0,0.11-0.04,11.31-3.93,26.18c-3.09,11.84-10.28,28.7-26.95,41.82
				c-0.03,0.02-0.63,0.5-1.25,0.91L33.64,91z M2.07,21.24c-0.01,0.15-0.02,0.41-0.02,0.77c0,0.11,0.04,11.19,3.89,25.94
				C9,59.65,16.1,76.31,32.57,89.27c0.01,0,0.44,0.34,0.93,0.69c0.49-0.35,0.92-0.69,0.93-0.69C50.9,76.31,58,59.65,61.06,47.95
				c3.85-14.75,3.89-25.83,3.89-25.94c0-0.36-0.01-0.62-0.02-0.77c-0.6-0.52-2.86-2.5-3.78-3.26C48.47,7.51,34.1,2.23,33.96,2.18
				L33.5,2.01l-0.45,0.17C32.9,2.23,18.53,7.51,5.85,17.98C4.92,18.74,2.66,20.72,2.07,21.24z"/>
		</g>
	</g>
</g>
</svg>
